<?xml version="1.0" encoding="utf-8" ?>
<svg xmlns="http://www.w3.org/2000/svg" viewBox="-29.094467000000005 -32.656492 58.18893400000001 65.312984" width="800" height="800">
  <g transform="scale(1, -1)"> <!-- 翻轉 Y 軸以符合 CNC 座標系 -->
    <polyline points="-0.6556950000000037,-29.68772 -2.0956950000000014,-29.557720000000003 -1.7256950000000026,-5.0877200000000045 -1.7818550000000024,-4.658600000000004 -2.0881950000000025,-4.485220000000002 -2.175695000000003,-3.1277200000000027 -8.475695000000004,-6.717720000000005 -13.256745000000002,-18.759760000000004 -14.269855000000003,-18.56772000000001 -14.874785000000003,-18.218180000000004 -12.465695000000004,-8.937720000000006 -24.864085000000003,-15.738400000000006 -25.082155000000004,-15.651359999999997 -25.700425000000003,-14.65842 -26.090255000000003,-13.83172 -25.969595000000005,-13.635480000000005 -5.124615000000001,-1.3906500000000026 -4.858335000000004,-1.129480000000004 -4.920175000000001,-0.6289200000000026 -3.5984950000000033,0.27643999999999935 -9.375695000000004,4.0722799999999975 -23.025695000000002,2.0922799999999966 -23.455695000000006,3.7922799999999968 -13.255695000000005,6.532279999999995 -24.800425000000004,14.070819999999998 -25.679295000000003,14.785239999999996 -25.053345000000004,15.889629999999997 -24.675695000000005,16.162279999999996 -4.474815000000002,4.175079999999994 -3.533775000000004,3.738129999999998 -3.294895000000003,4.016759999999996 -2.0556950000000036,3.4322799999999942 -1.9056950000000037,10.492279999999997 -10.125695000000004,20.992279999999997 -9.421295000000002,21.83772 -8.844055,22.1461 -1.8756950000000026,15.162279999999996 -1.4656950000000002,29.60228 0.4130249999999982,29.68772 1.4143049999999953,29.60228 1.0745549999999973,5.26539 1.1283049999999997,4.654039999999995 1.5525449999999972,4.42164 1.6243049999999974,3.1222799999999977 8.144304999999996,6.812279999999996 12.524444999999996,18.030629999999995 13.038704999999993,19.04556 14.024304999999998,18.912279999999996 14.654304999999999,18.562279999999998 12.194304999999996,9.142279999999996 24.30902499999999,15.900599999999995 24.674305,16.07228 25.008905,15.637789999999995 25.509185,14.327129999999997 4.5843050000000005,1.6322799999999944 4.883904999999999,0.8599599999999981 3.661864999999994,0.04101999999999473 10.154304999999999,-3.7077200000000037 22.792715000000005,-1.7407200000000076 23.230384999999995,-2.8606799999999994 23.253055,-3.266590000000005 23.104304999999993,-3.487720000000005 13.924304999999999,-6.007720000000004 26.125695000000004,-13.333940000000005 24.944305000000004,-15.437720000000006 4.241985,-3.7979600000000033 3.2624249999999955,-3.363980000000007 2.8168049999999987,-3.7664700000000018 1.4043049999999986,-2.907720000000004 1.2743049999999976,-10.287720000000006 9.374304999999998,-20.98772 8.586064999999996,-21.914200000000005 8.084305,-22.117720000000006 1.1643049999999953,-15.207720000000005 0.7243049999999975,-29.657720000000005 -0.6556950000000037,-29.68772" fill="none" stroke="black" stroke-width="0.5" />
    <polyline points="0.6743049999999975,-29.407720000000005 -2.1256950000000026,-29.407720000000005" fill="none" stroke="black" stroke-width="0.5" />
    <polyline points="-2.1256950000000026,-28.907720000000005 0.6743049999999975,-28.907720000000005" fill="none" stroke="black" stroke-width="0.5" />
    <polyline points="0.7743049999999975,-28.407720000000005 -2.1256950000000026,-28.407720000000005" fill="none" stroke="black" stroke-width="0.5" />
    <polyline points="-2.1256950000000026,-27.907720000000005 0.7743049999999975,-27.907720000000005" fill="none" stroke="black" stroke-width="0.5" />
    <polyline points="0.7743049999999975,-27.407720000000005 -2.1256950000000026,-27.407720000000005" fill="none" stroke="black" stroke-width="0.5" />
    <polyline points="-2.1256950000000026,-26.907720000000005 0.7743049999999975,-26.907720000000005" fill="none" stroke="black" stroke-width="0.5" />
    <polyline points="0.7743049999999975,-26.407720000000005 -2.1256950000000026,-26.407720000000005" fill="none" stroke="black" stroke-width="0.5" />
    <polyline points="-2.1256950000000026,-25.907720000000005 0.7743049999999975,-25.907720000000005" fill="none" stroke="black" stroke-width="0.5" />
    <polyline points="0.7743049999999975,-25.407720000000005 -2.1256950000000026,-25.407720000000005" fill="none" stroke="black" stroke-width="0.5" />
    <polyline points="-2.0256950000000025,-24.907720000000005 0.7743049999999975,-24.907720000000005" fill="none" stroke="black" stroke-width="0.5" />
    <polyline points="0.7743049999999975,-24.407720000000005 -2.0256950000000025,-24.407720000000005" fill="none" stroke="black" stroke-width="0.5" />
    <polyline points="-2.0256950000000025,-23.907720000000005 0.8743049999999974,-23.907720000000005" fill="none" stroke="black" stroke-width="0.5" />
    <polyline points="0.8743049999999974,-23.407720000000005 -2.0256950000000025,-23.407720000000005" fill="none" stroke="black" stroke-width="0.5" />
    <polyline points="-2.0256950000000025,-22.907720000000005 0.8743049999999974,-22.907720000000005" fill="none" stroke="black" stroke-width="0.5" />
    <polyline points="0.8743049999999974,-22.407720000000005 -2.0256950000000025,-22.407720000000005" fill="none" stroke="black" stroke-width="0.5" />
    <polyline points="-2.0256950000000025,-21.907720000000005 0.8743049999999974,-21.907720000000005" fill="none" stroke="black" stroke-width="0.5" />
    <polyline points="0.8743049999999974,-21.407720000000005 -2.0256950000000025,-21.407720000000005" fill="none" stroke="black" stroke-width="0.5" />
    <polyline points="-2.0256950000000025,-20.907720000000005 0.8743049999999974,-20.907720000000005" fill="none" stroke="black" stroke-width="0.5" />
    <polyline points="0.8743049999999974,-20.407720000000005 -2.0256950000000025,-20.407720000000005" fill="none" stroke="black" stroke-width="0.5" />
    <polyline points="-2.0256950000000025,-19.907720000000005 0.8743049999999974,-19.907720000000005" fill="none" stroke="black" stroke-width="0.5" />
    <polyline points="0.9743049999999975,-19.407720000000005 -1.9256950000000028,-19.407720000000005" fill="none" stroke="black" stroke-width="0.5" />
    <polyline points="-1.9256950000000028,-18.907720000000005 0.9743049999999975,-18.907720000000005" fill="none" stroke="black" stroke-width="0.5" />
    <polyline points="0.9743049999999975,-18.407720000000005 -1.9256950000000028,-18.407720000000005" fill="none" stroke="black" stroke-width="0.5" />
    <polyline points="-1.9256950000000028,-17.907720000000005 0.9743049999999975,-17.907720000000005" fill="none" stroke="black" stroke-width="0.5" />
    <polyline points="0.9743049999999975,-17.407720000000005 -1.9256950000000028,-17.407720000000005" fill="none" stroke="black" stroke-width="0.5" />
    <polyline points="-1.9256950000000028,-16.907720000000005 0.9743049999999975,-16.907720000000005" fill="none" stroke="black" stroke-width="0.5" />
    <polyline points="0.9743049999999975,-16.407720000000005 -1.9256950000000028,-16.407720000000005" fill="none" stroke="black" stroke-width="0.5" />
    <polyline points="-1.9256950000000028,-15.907720000000005 0.9743049999999975,-15.907720000000005" fill="none" stroke="black" stroke-width="0.5" />
    <polyline points="0.9743049999999975,-15.407720000000005 -1.9256950000000028,-15.407720000000005" fill="none" stroke="black" stroke-width="0.5" />
    <polyline points="-1.9256950000000028,-14.907720000000005 4.674304999999998,-14.907720000000005" fill="none" stroke="black" stroke-width="0.5" />
    <polyline points="4.274304999999998,-14.407720000000005 -1.9256950000000028,-14.407720000000005" fill="none" stroke="black" stroke-width="0.5" />
    <polyline points="-1.8256950000000027,-13.907720000000005 3.9743049999999975,-13.907720000000005" fill="none" stroke="black" stroke-width="0.5" />
    <polyline points="3.5743049999999976,-13.407720000000005 -1.8256950000000027,-13.407720000000005" fill="none" stroke="black" stroke-width="0.5" />
    <polyline points="-1.8256950000000027,-12.907720000000005 3.1743049999999977,-12.907720000000005" fill="none" stroke="black" stroke-width="0.5" />
    <polyline points="2.7743049999999974,-12.407720000000005 -1.8256950000000027,-12.407720000000005" fill="none" stroke="black" stroke-width="0.5" />
    <polyline points="-1.8256950000000027,-11.907720000000005 2.3743049999999974,-11.907720000000005" fill="none" stroke="black" stroke-width="0.5" />
    <polyline points="1.9743049999999975,-11.407720000000005 -1.8256950000000027,-11.407720000000005" fill="none" stroke="black" stroke-width="0.5" />
    <polyline points="-1.8256950000000027,-10.907720000000005 1.5743049999999976,-10.907720000000005" fill="none" stroke="black" stroke-width="0.5" />
    <polyline points="1.2743049999999976,-10.407720000000005 -1.8256950000000027,-10.407720000000005" fill="none" stroke="black" stroke-width="0.5" />
    <polyline points="-1.8256950000000027,-9.907720000000005 1.1743049999999975,-9.907720000000005" fill="none" stroke="black" stroke-width="0.5" />
    <polyline points="1.1743049999999975,-9.407720000000005 -1.8256950000000027,-9.407720000000005" fill="none" stroke="black" stroke-width="0.5" />
    <polyline points="-1.8256950000000027,-8.907720000000005 1.1743049999999975,-8.907720000000005" fill="none" stroke="black" stroke-width="0.5" />
    <polyline points="1.1743049999999975,-8.407720000000005 -1.7256950000000026,-8.407720000000005" fill="none" stroke="black" stroke-width="0.5" />
    <polyline points="-1.7256950000000026,-7.907720000000005 1.1743049999999975,-7.907720000000005" fill="none" stroke="black" stroke-width="0.5" />
    <polyline points="1.1743049999999975,-7.407720000000005 -1.7256950000000026,-7.407720000000005" fill="none" stroke="black" stroke-width="0.5" />
    <polyline points="-1.7256950000000026,-6.907720000000003 1.1743049999999975,-6.907720000000003" fill="none" stroke="black" stroke-width="0.5" />
    <polyline points="1.1743049999999975,-6.407720000000003 -1.7256950000000026,-6.407720000000003" fill="none" stroke="black" stroke-width="0.5" />
    <polyline points="-1.7256950000000026,-5.907720000000003 1.2743049999999976,-5.907720000000003" fill="none" stroke="black" stroke-width="0.5" />
    <polyline points="1.2743049999999976,-5.407720000000004 -1.7256950000000026,-5.407720000000004" fill="none" stroke="black" stroke-width="0.5" />
    <polyline points="-1.7256950000000026,-4.907720000000004 1.2743049999999976,-4.907720000000004" fill="none" stroke="black" stroke-width="0.5" />
    <polyline points="1.2743049999999976,-4.407720000000004 -2.1256950000000026,-4.407720000000004" fill="none" stroke="black" stroke-width="0.5" />
    <polyline points="-2.1256950000000026,-3.907720000000004 1.2743049999999976,-3.907720000000004" fill="none" stroke="black" stroke-width="0.5" />
    <polyline points="1.2743049999999976,-3.407720000000004 -2.1256950000000026,-3.407720000000004" fill="none" stroke="black" stroke-width="0.5" />
    <polyline points="-2.7256950000000026,-3.407720000000004 -8.525695000000002,-3.407720000000004" fill="none" stroke="black" stroke-width="0.5" />
    <polyline points="-9.325695000000003,-3.907720000000004 -3.5256950000000025,-3.907720000000004" fill="none" stroke="black" stroke-width="0.5" />
    <polyline points="-4.425695000000003,-4.407720000000004 -10.225695000000004,-4.407720000000004" fill="none" stroke="black" stroke-width="0.5" />
    <polyline points="-11.025695000000002,-4.907720000000004 -5.325695000000003,-4.907720000000004" fill="none" stroke="black" stroke-width="0.5" />
    <polyline points="-6.225695000000003,-5.407720000000004 -11.925695000000003,-5.407720000000004" fill="none" stroke="black" stroke-width="0.5" />
    <polyline points="-12.825695000000003,-5.907720000000003 -7.125695000000002,-5.907720000000003" fill="none" stroke="black" stroke-width="0.5" />
    <polyline points="-8.025695000000002,-6.407720000000003 -13.625695000000004,-6.407720000000003" fill="none" stroke="black" stroke-width="0.5" />
    <polyline points="-14.525695000000002,-6.907720000000003 -8.725695000000004,-6.907720000000003" fill="none" stroke="black" stroke-width="0.5" />
    <polyline points="-8.925695000000003,-7.407720000000005 -15.325695000000003,-7.407720000000005" fill="none" stroke="black" stroke-width="0.5" />
    <polyline points="-16.225695,-7.907720000000005 -9.125695000000004,-7.907720000000005" fill="none" stroke="black" stroke-width="0.5" />
    <polyline points="-9.325695000000003,-8.407720000000005 -17.125695000000004,-8.407720000000005" fill="none" stroke="black" stroke-width="0.5" />
    <polyline points="-17.925695000000005,-8.907720000000005 -9.425695000000003,-8.907720000000005" fill="none" stroke="black" stroke-width="0.5" />
    <polyline points="-9.625695000000004,-9.407720000000005 -12.525695000000002,-9.407720000000005" fill="none" stroke="black" stroke-width="0.5" />
    <polyline points="-12.725695000000004,-9.907720000000005 -9.825695000000003,-9.907720000000005" fill="none" stroke="black" stroke-width="0.5" />
    <polyline points="-10.025695000000002,-10.407720000000005 -12.825695000000003,-10.407720000000005" fill="none" stroke="black" stroke-width="0.5" />
    <polyline points="-12.925695000000003,-10.907720000000005 -10.225695000000004,-10.907720000000005" fill="none" stroke="black" stroke-width="0.5" />
    <polyline points="-10.425695000000003,-11.407720000000005 -13.125695000000004,-11.407720000000005" fill="none" stroke="black" stroke-width="0.5" />
    <polyline points="-13.225695000000004,-11.907720000000005 -10.625695000000004,-11.907720000000005" fill="none" stroke="black" stroke-width="0.5" />
    <polyline points="-10.825695000000003,-12.407720000000005 -13.325695000000003,-12.407720000000005" fill="none" stroke="black" stroke-width="0.5" />
    <polyline points="-13.525695000000002,-12.907720000000005 -11.025695000000002,-12.907720000000005" fill="none" stroke="black" stroke-width="0.5" />
    <polyline points="-11.225695000000004,-13.407720000000005 -13.625695000000004,-13.407720000000005" fill="none" stroke="black" stroke-width="0.5" />
    <polyline points="-13.825695000000003,-13.907720000000005 -11.425695000000003,-13.907720000000005" fill="none" stroke="black" stroke-width="0.5" />
    <polyline points="-11.625695000000004,-14.407720000000005 -13.925695000000003,-14.407720000000005" fill="none" stroke="black" stroke-width="0.5" />
    <polyline points="-14.025695000000002,-14.907720000000005 -11.825695000000003,-14.907720000000005" fill="none" stroke="black" stroke-width="0.5" />
    <polyline points="-12.025695000000002,-15.407720000000005 -14.225695000000004,-15.407720000000005" fill="none" stroke="black" stroke-width="0.5" />
    <polyline points="-14.325695000000003,-15.907720000000005 -12.225695000000004,-15.907720000000005" fill="none" stroke="black" stroke-width="0.5" />
    <polyline points="-12.325695000000003,-16.407720000000005 -14.425695000000003,-16.407720000000005" fill="none" stroke="black" stroke-width="0.5" />
    <polyline points="-14.625695000000004,-16.907720000000005 -12.525695000000002,-16.907720000000005" fill="none" stroke="black" stroke-width="0.5" />
    <polyline points="-12.725695000000004,-17.407720000000005 -14.725695000000002,-17.407720000000005" fill="none" stroke="black" stroke-width="0.5" />
    <polyline points="-14.925695000000005,-17.907720000000005 -12.925695000000003,-17.907720000000005" fill="none" stroke="black" stroke-width="0.5" />
    <polyline points="-13.125695000000004,-18.407720000000005 -14.825695000000003,-18.407720000000005" fill="none" stroke="black" stroke-width="0.5" />
    <polyline points="-18.725695000000005,-12.407720000000005 -24.025695000000002,-12.407720000000005" fill="none" stroke="black" stroke-width="0.5" />
    <polyline points="-24.825695000000003,-12.907720000000005 -19.625695000000004,-12.907720000000005" fill="none" stroke="black" stroke-width="0.5" />
    <polyline points="-20.525695000000002,-13.407720000000005 -25.725695000000005,-13.407720000000005" fill="none" stroke="black" stroke-width="0.5" />
    <polyline points="-26.125695000000004,-13.907720000000005 -21.425695000000005,-13.907720000000005" fill="none" stroke="black" stroke-width="0.5" />
    <polyline points="-22.325695000000003,-14.407720000000005 -25.825695000000003,-14.407720000000005" fill="none" stroke="black" stroke-width="0.5" />
    <polyline points="-25.625695000000004,-14.907720000000005 -23.225695000000005,-14.907720000000005" fill="none" stroke="black" stroke-width="0.5" />
    <polyline points="-24.125695000000004,-15.407720000000005 -25.325695000000003,-15.407720000000005" fill="none" stroke="black" stroke-width="0.5" />
    <polyline points="-23.125695000000004,-11.907720000000005 -17.825695000000003,-11.907720000000005" fill="none" stroke="black" stroke-width="0.5" />
    <polyline points="-16.925695000000005,-11.407720000000005 -22.225695000000005,-11.407720000000005" fill="none" stroke="black" stroke-width="0.5" />
    <polyline points="-21.425695000000005,-10.907720000000005 -16.025695000000002,-10.907720000000005" fill="none" stroke="black" stroke-width="0.5" />
    <polyline points="-15.225695000000002,-10.407720000000005 -20.525695000000002,-10.407720000000005" fill="none" stroke="black" stroke-width="0.5" />
    <polyline points="-19.625695000000004,-9.907720000000005 -14.325695000000003,-9.907720000000005" fill="none" stroke="black" stroke-width="0.5" />
    <polyline points="-13.425695000000003,-9.407720000000005 -18.825695000000003,-9.407720000000005" fill="none" stroke="black" stroke-width="0.5" />
    <polyline points="-22.225695000000005,2.0922799999999966 -23.125695000000004,2.0922799999999966" fill="none" stroke="black" stroke-width="0.5" />
    <polyline points="-23.225695000000005,2.5922799999999966 -18.925695000000005,2.5922799999999966" fill="none" stroke="black" stroke-width="0.5" />
    <polyline points="-20.425695000000005,4.592279999999997 -5.425695000000003,4.592279999999997" fill="none" stroke="black" stroke-width="0.5" />
    <polyline points="-4.625695000000003,4.092279999999997 -22.325695000000003,4.092279999999997" fill="none" stroke="black" stroke-width="0.5" />
    <polyline points="-23.525695000000002,3.592279999999997 -12.325695000000003,3.592279999999997" fill="none" stroke="black" stroke-width="0.5" />
    <polyline points="-13.325695000000003,6.592279999999997 -8.825695000000003,6.592279999999997" fill="none" stroke="black" stroke-width="0.5" />
    <polyline points="-9.625695000000004,7.092279999999997 -14.125695000000004,7.092279999999997" fill="none" stroke="black" stroke-width="0.5" />
    <polyline points="-14.925695000000005,7.592279999999997 -10.425695000000003,7.592279999999997" fill="none" stroke="black" stroke-width="0.5" />
    <polyline points="-11.325695000000003,8.092279999999997 -15.625695000000004,8.092279999999997" fill="none" stroke="black" stroke-width="0.5" />
    <polyline points="-16.425695000000005,8.592279999999997 -12.125695000000004,8.592279999999997" fill="none" stroke="black" stroke-width="0.5" />
    <polyline points="-12.925695000000003,9.092279999999997 -17.225695,9.092279999999997" fill="none" stroke="black" stroke-width="0.5" />
    <polyline points="-18.025695000000002,9.592279999999997 -13.825695000000003,9.592279999999997" fill="none" stroke="black" stroke-width="0.5" />
    <polyline points="-14.625695000000004,10.092279999999997 -18.725695000000005,10.092279999999997" fill="none" stroke="black" stroke-width="0.5" />
    <polyline points="-19.525695000000002,10.592279999999997 -15.425695000000005,10.592279999999997" fill="none" stroke="black" stroke-width="0.5" />
    <polyline points="-16.325695000000003,11.092279999999997 -20.325695000000003,11.092279999999997" fill="none" stroke="black" stroke-width="0.5" />
    <polyline points="-21.025695000000002,11.592279999999997 -17.125695000000004,11.592279999999997" fill="none" stroke="black" stroke-width="0.5" />
    <polyline points="-17.925695000000005,12.092279999999997 -21.825695000000003,12.092279999999997" fill="none" stroke="black" stroke-width="0.5" />
    <polyline points="-22.625695000000004,12.592279999999997 -18.825695000000003,12.592279999999997" fill="none" stroke="black" stroke-width="0.5" />
    <polyline points="-19.625695000000004,13.092279999999997 -23.425695000000005,13.092279999999997" fill="none" stroke="black" stroke-width="0.5" />
    <polyline points="-24.125695000000004,13.592279999999997 -20.425695000000005,13.592279999999997" fill="none" stroke="black" stroke-width="0.5" />
    <polyline points="-21.325695000000003,14.092279999999997 -24.925695000000005,14.092279999999997" fill="none" stroke="black" stroke-width="0.5" />
    <polyline points="-25.625695000000004,14.592279999999997 -22.125695000000004,14.592279999999997" fill="none" stroke="black" stroke-width="0.5" />
    <polyline points="-22.925695000000005,15.092279999999997 -25.525695000000002,15.092279999999997" fill="none" stroke="black" stroke-width="0.5" />
    <polyline points="-25.225695000000005,15.592279999999997 -23.825695000000003,15.592279999999997" fill="none" stroke="black" stroke-width="0.5" />
    <polyline points="-24.625695000000004,16.092279999999995 -24.925695000000005,16.092279999999995" fill="none" stroke="black" stroke-width="0.5" />
    <polyline points="-18.525695000000002,5.092279999999997 -6.325695000000003,5.092279999999997" fill="none" stroke="black" stroke-width="0.5" />
    <polyline points="-7.125695000000002,5.592279999999997 -16.525695000000002,5.592279999999997" fill="none" stroke="black" stroke-width="0.5" />
    <polyline points="-14.625695000000004,6.092279999999997 -7.925695000000003,6.092279999999997" fill="none" stroke="black" stroke-width="0.5" />
    <polyline points="-8.725695000000004,3.592279999999997 -3.825695000000003,3.592279999999997" fill="none" stroke="black" stroke-width="0.5" />
    <polyline points="-3.5256950000000025,3.592279999999997 -2.625695000000003,3.592279999999997" fill="none" stroke="black" stroke-width="0.5" />
    <polyline points="-2.0256950000000025,3.592279999999997 1.4743049999999975,3.592279999999997" fill="none" stroke="black" stroke-width="0.5" />
    <polyline points="1.4743049999999975,4.092279999999997 -2.0256950000000025,4.092279999999997" fill="none" stroke="black" stroke-width="0.5" />
    <polyline points="-2.0256950000000025,4.592279999999997 0.9743049999999975,4.592279999999997" fill="none" stroke="black" stroke-width="0.5" />
    <polyline points="0.9743049999999975,5.092279999999997 -1.9256950000000028,5.092279999999997" fill="none" stroke="black" stroke-width="0.5" />
    <polyline points="-1.9256950000000028,5.592279999999997 0.9743049999999975,5.592279999999997" fill="none" stroke="black" stroke-width="0.5" />
    <polyline points="0.9743049999999975,6.092279999999997 -1.9256950000000028,6.092279999999997" fill="none" stroke="black" stroke-width="0.5" />
    <polyline points="-1.9256950000000028,6.592279999999997 0.9743049999999975,6.592279999999997" fill="none" stroke="black" stroke-width="0.5" />
    <polyline points="0.9743049999999975,7.092279999999997 -1.9256950000000028,7.092279999999997" fill="none" stroke="black" stroke-width="0.5" />
    <polyline points="-1.9256950000000028,7.592279999999997 0.9743049999999975,7.592279999999997" fill="none" stroke="black" stroke-width="0.5" />
    <polyline points="0.9743049999999975,8.092279999999997 -1.9256950000000028,8.092279999999997" fill="none" stroke="black" stroke-width="0.5" />
    <polyline points="-1.9256950000000028,8.592279999999997 0.9743049999999975,8.592279999999997" fill="none" stroke="black" stroke-width="0.5" />
    <polyline points="1.0743049999999976,9.092279999999997 -1.9256950000000028,9.092279999999997" fill="none" stroke="black" stroke-width="0.5" />
    <polyline points="-1.9256950000000028,9.592279999999997 1.0743049999999976,9.592279999999997" fill="none" stroke="black" stroke-width="0.5" />
    <polyline points="1.0743049999999976,10.092279999999997 -1.9256950000000028,10.092279999999997" fill="none" stroke="black" stroke-width="0.5" />
    <polyline points="-2.0256950000000025,10.592279999999997 1.0743049999999976,10.592279999999997" fill="none" stroke="black" stroke-width="0.5" />
    <polyline points="1.0743049999999976,11.092279999999997 -2.425695000000003,11.092279999999997" fill="none" stroke="black" stroke-width="0.5" />
    <polyline points="-2.8256950000000023,11.592279999999997 1.0743049999999976,11.592279999999997" fill="none" stroke="black" stroke-width="0.5" />
    <polyline points="1.0743049999999976,12.092279999999997 -3.2256950000000026,12.092279999999997" fill="none" stroke="black" stroke-width="0.5" />
    <polyline points="-3.625695000000003,12.592279999999997 1.0743049999999976,12.592279999999997" fill="none" stroke="black" stroke-width="0.5" />
    <polyline points="1.0743049999999976,13.092279999999997 -4.0256950000000025,13.092279999999997" fill="none" stroke="black" stroke-width="0.5" />
    <polyline points="-4.325695000000003,13.592279999999997 1.0743049999999976,13.592279999999997" fill="none" stroke="black" stroke-width="0.5" />
    <polyline points="1.0743049999999976,14.092279999999997 -4.725695000000003,14.092279999999997" fill="none" stroke="black" stroke-width="0.5" />
    <polyline points="-5.125695000000003,14.592279999999997 1.0743049999999976,14.592279999999997" fill="none" stroke="black" stroke-width="0.5" />
    <polyline points="1.1743049999999975,15.092279999999997 -5.5256950000000025,15.092279999999997" fill="none" stroke="black" stroke-width="0.5" />
    <polyline points="-5.925695000000003,15.592279999999997 -2.425695000000003,15.592279999999997" fill="none" stroke="black" stroke-width="0.5" />
    <polyline points="-1.8256950000000027,15.592279999999997 1.1743049999999975,15.592279999999997" fill="none" stroke="black" stroke-width="0.5" />
    <polyline points="1.1743049999999975,16.092279999999995 -1.7256950000000026,16.092279999999995" fill="none" stroke="black" stroke-width="0.5" />
    <polyline points="-1.7256950000000026,16.592279999999995 1.1743049999999975,16.592279999999995" fill="none" stroke="black" stroke-width="0.5" />
    <polyline points="1.1743049999999975,17.092279999999995 -1.7256950000000026,17.092279999999995" fill="none" stroke="black" stroke-width="0.5" />
    <polyline points="-1.7256950000000026,17.592279999999995 1.1743049999999975,17.592279999999995" fill="none" stroke="black" stroke-width="0.5" />
    <polyline points="1.1743049999999975,18.092279999999995 -1.7256950000000026,18.092279999999995" fill="none" stroke="black" stroke-width="0.5" />
    <polyline points="-1.7256950000000026,18.59228 1.1743049999999975,18.59228" fill="none" stroke="black" stroke-width="0.5" />
    <polyline points="1.1743049999999975,19.09228 -1.7256950000000026,19.09228" fill="none" stroke="black" stroke-width="0.5" />
    <polyline points="-1.7256950000000026,19.59228 1.1743049999999975,19.59228" fill="none" stroke="black" stroke-width="0.5" />
    <polyline points="1.1743049999999975,20.09228 -1.7256950000000026,20.09228" fill="none" stroke="black" stroke-width="0.5" />
    <polyline points="-1.7256950000000026,20.59228 1.1743049999999975,20.59228" fill="none" stroke="black" stroke-width="0.5" />
    <polyline points="1.2743049999999976,21.09228 -1.7256950000000026,21.09228" fill="none" stroke="black" stroke-width="0.5" />
    <polyline points="-1.6256950000000026,21.59228 1.2743049999999976,21.59228" fill="none" stroke="black" stroke-width="0.5" />
    <polyline points="1.2743049999999976,22.09228 -1.6256950000000026,22.09228" fill="none" stroke="black" stroke-width="0.5" />
    <polyline points="-1.6256950000000026,22.59228 1.2743049999999976,22.59228" fill="none" stroke="black" stroke-width="0.5" />
    <polyline points="1.2743049999999976,23.09228 -1.6256950000000026,23.09228" fill="none" stroke="black" stroke-width="0.5" />
    <polyline points="-1.6256950000000026,23.59228 1.2743049999999976,23.59228" fill="none" stroke="black" stroke-width="0.5" />
    <polyline points="1.2743049999999976,24.09228 -1.6256950000000026,24.09228" fill="none" stroke="black" stroke-width="0.5" />
    <polyline points="-1.6256950000000026,24.59228 1.2743049999999976,24.59228" fill="none" stroke="black" stroke-width="0.5" />
    <polyline points="1.2743049999999976,25.09228 -1.6256950000000026,25.09228" fill="none" stroke="black" stroke-width="0.5" />
    <polyline points="-1.6256950000000026,25.59228 1.2743049999999976,25.59228" fill="none" stroke="black" stroke-width="0.5" />
    <polyline points="1.2743049999999976,26.09228 -1.6256950000000026,26.09228" fill="none" stroke="black" stroke-width="0.5" />
    <polyline points="-1.6256950000000026,26.59228 1.2743049999999976,26.59228" fill="none" stroke="black" stroke-width="0.5" />
    <polyline points="1.2743049999999976,27.09228 -1.5256950000000025,27.09228" fill="none" stroke="black" stroke-width="0.5" />
    <polyline points="-1.5256950000000025,27.59228 1.3743049999999974,27.59228" fill="none" stroke="black" stroke-width="0.5" />
    <polyline points="1.3743049999999974,28.09228 -1.5256950000000025,28.09228" fill="none" stroke="black" stroke-width="0.5" />
    <polyline points="-1.5256950000000025,28.59228 1.3743049999999974,28.59228" fill="none" stroke="black" stroke-width="0.5" />
    <polyline points="1.3743049999999974,29.09228 -1.5256950000000025,29.09228" fill="none" stroke="black" stroke-width="0.5" />
    <polyline points="-1.4256950000000028,29.59228 1.2743049999999976,29.59228" fill="none" stroke="black" stroke-width="0.5" />
    <polyline points="-7.325695000000003,20.59228 -9.925695000000003,20.59228" fill="none" stroke="black" stroke-width="0.5" />
    <polyline points="-10.125695000000004,21.09228 -7.825695000000003,21.09228" fill="none" stroke="black" stroke-width="0.5" />
    <polyline points="-8.325695000000003,21.59228 -9.625695000000004,21.59228" fill="none" stroke="black" stroke-width="0.5" />
    <polyline points="-9.125695000000004,22.09228 -8.825695000000003,22.09228" fill="none" stroke="black" stroke-width="0.5" />
    <polyline points="-9.525695000000002,20.09228 -6.825695000000003,20.09228" fill="none" stroke="black" stroke-width="0.5" />
    <polyline points="-6.325695000000003,19.59228 -9.125695000000004,19.59228" fill="none" stroke="black" stroke-width="0.5" />
    <polyline points="-8.725695000000004,19.09228 -5.825695000000003,19.09228" fill="none" stroke="black" stroke-width="0.5" />
    <polyline points="-5.425695000000003,18.59228 -8.325695000000003,18.59228" fill="none" stroke="black" stroke-width="0.5" />
    <polyline points="-7.925695000000003,18.092279999999995 -4.925695000000003,18.092279999999995" fill="none" stroke="black" stroke-width="0.5" />
    <polyline points="-4.425695000000003,17.592279999999995 -7.5256950000000025,17.592279999999995" fill="none" stroke="black" stroke-width="0.5" />
    <polyline points="-7.125695000000002,17.092279999999995 -3.925695000000003,17.092279999999995" fill="none" stroke="black" stroke-width="0.5" />
    <polyline points="-3.425695000000003,16.592279999999995 -6.7256950000000035,16.592279999999995" fill="none" stroke="black" stroke-width="0.5" />
    <polyline points="-6.325695000000003,16.092279999999995 -2.925695000000003,16.092279999999995" fill="none" stroke="black" stroke-width="0.5" />
    <polyline points="3.374304999999998,4.092279999999997 8.674304999999997,4.092279999999997" fill="none" stroke="black" stroke-width="0.5" />
    <polyline points="7.874304999999998,3.592279999999997 2.5743049999999976,3.592279999999997" fill="none" stroke="black" stroke-width="0.5" />
    <polyline points="1.6743049999999975,3.0922799999999966 6.9743049999999975,3.0922799999999966" fill="none" stroke="black" stroke-width="0.5" />
    <polyline points="6.174304999999998,2.5922799999999966 -7.125695000000002,2.5922799999999966" fill="none" stroke="black" stroke-width="0.5" />
    <polyline points="-6.425695000000003,2.0922799999999966 5.374304999999998,2.0922799999999966" fill="none" stroke="black" stroke-width="0.5" />
    <polyline points="4.4743049999999975,1.5922799999999966 -5.625695000000003,1.5922799999999966" fill="none" stroke="black" stroke-width="0.5" />
    <polyline points="-4.825695000000003,1.0922799999999966 4.674304999999998,1.0922799999999966" fill="none" stroke="black" stroke-width="0.5" />
    <polyline points="4.4743049999999975,0.5922799999999966 -4.0256950000000025,0.5922799999999966" fill="none" stroke="black" stroke-width="0.5" />
    <polyline points="-3.625695000000003,0.09227999999999659 3.5743049999999976,0.09227999999999659" fill="none" stroke="black" stroke-width="0.5" />
    <polyline points="4.174304999999998,-0.4077200000000034 -4.5256950000000025,-0.4077200000000034" fill="none" stroke="black" stroke-width="0.5" />
    <polyline points="-4.925695000000003,-0.9077200000000034 4.9743049999999975,-0.9077200000000034" fill="none" stroke="black" stroke-width="0.5" />
    <polyline points="5.874304999999998,-1.4077200000000034 -5.0256950000000025,-1.4077200000000034" fill="none" stroke="black" stroke-width="0.5" />
    <polyline points="-5.925695000000003,-1.9077200000000039 6.674304999999998,-1.9077200000000039" fill="none" stroke="black" stroke-width="0.5" />
    <polyline points="7.574304999999998,-2.407720000000004 -6.7256950000000035,-2.407720000000004" fill="none" stroke="black" stroke-width="0.5" />
    <polyline points="-7.625695000000002,-2.907720000000004 8.374304999999998,-2.907720000000004" fill="none" stroke="black" stroke-width="0.5" />
    <polyline points="9.274304999999998,-3.407720000000004 3.5743049999999976,-3.407720000000004" fill="none" stroke="black" stroke-width="0.5" />
    <polyline points="3.0743049999999976,-3.407720000000004 2.0743049999999976,-3.407720000000004" fill="none" stroke="black" stroke-width="0.5" />
    <polyline points="4.4743049999999975,-3.907720000000004 21.774305,-3.907720000000004" fill="none" stroke="black" stroke-width="0.5" />
    <polyline points="23.174305,-3.407720000000004 12.474304999999998,-3.407720000000004" fill="none" stroke="black" stroke-width="0.5" />
    <polyline points="14.174304999999999,-5.907720000000003 7.9743049999999975,-5.907720000000003" fill="none" stroke="black" stroke-width="0.5" />
    <polyline points="7.074304999999998,-5.407720000000004 16.074305,-5.407720000000004" fill="none" stroke="black" stroke-width="0.5" />
    <polyline points="15.174304999999999,-6.907720000000003 9.674304999999999,-6.907720000000003" fill="none" stroke="black" stroke-width="0.5" />
    <polyline points="8.874304999999998,-6.407720000000003 14.374304999999998,-6.407720000000003" fill="none" stroke="black" stroke-width="0.5" />
    <polyline points="16.074305,-7.407720000000005 10.574304999999997,-7.407720000000005" fill="none" stroke="black" stroke-width="0.5" />
    <polyline points="11.474304999999998,-7.907720000000005 16.874305,-7.907720000000005" fill="none" stroke="black" stroke-width="0.5" />
    <polyline points="17.774305,-8.407720000000005 12.374304999999998,-8.407720000000005" fill="none" stroke="black" stroke-width="0.5" />
    <polyline points="13.174304999999999,-8.907720000000005 18.574305,-8.907720000000005" fill="none" stroke="black" stroke-width="0.5" />
    <polyline points="19.474304999999998,-9.407720000000005 14.074304999999999,-9.407720000000005" fill="none" stroke="black" stroke-width="0.5" />
    <polyline points="14.974304999999998,-9.907720000000005 20.274305,-9.907720000000005" fill="none" stroke="black" stroke-width="0.5" />
    <polyline points="21.174305,-10.407720000000005 15.874304999999998,-10.407720000000005" fill="none" stroke="black" stroke-width="0.5" />
    <polyline points="16.774305,-10.907720000000005 21.974304999999998,-10.907720000000005" fill="none" stroke="black" stroke-width="0.5" />
    <polyline points="22.874305,-11.407720000000005 17.574305,-11.407720000000005" fill="none" stroke="black" stroke-width="0.5" />
    <polyline points="18.474304999999998,-11.907720000000005 23.774305,-11.907720000000005" fill="none" stroke="black" stroke-width="0.5" />
    <polyline points="24.574305,-12.407720000000005 19.374305,-12.407720000000005" fill="none" stroke="black" stroke-width="0.5" />
    <polyline points="20.274305,-12.907720000000005 25.474304999999998,-12.907720000000005" fill="none" stroke="black" stroke-width="0.5" />
    <polyline points="26.074305,-13.407720000000005 21.074305,-13.407720000000005" fill="none" stroke="black" stroke-width="0.5" />
    <polyline points="21.974304999999998,-13.907720000000005 25.874305,-13.907720000000005" fill="none" stroke="black" stroke-width="0.5" />
    <polyline points="25.574305,-14.407720000000005 22.874305,-14.407720000000005" fill="none" stroke="black" stroke-width="0.5" />
    <polyline points="23.774305,-14.907720000000005 25.274305,-14.907720000000005" fill="none" stroke="black" stroke-width="0.5" />
    <polyline points="24.974304999999998,-15.407720000000005 24.574305,-15.407720000000005" fill="none" stroke="black" stroke-width="0.5" />
    <polyline points="19.874305,-4.407720000000004 5.374304999999998,-4.407720000000004" fill="none" stroke="black" stroke-width="0.5" />
    <polyline points="6.174304999999998,-4.907720000000004 17.974304999999998,-4.907720000000004" fill="none" stroke="black" stroke-width="0.5" />
    <polyline points="18.574305,-2.407720000000004 22.974304999999998,-2.407720000000004" fill="none" stroke="black" stroke-width="0.5" />
    <polyline points="22.874305,-1.9077200000000039 21.674305,-1.9077200000000039" fill="none" stroke="black" stroke-width="0.5" />
    <polyline points="23.174305,-2.907720000000004 15.574304999999999,-2.907720000000004" fill="none" stroke="black" stroke-width="0.5" />
    <polyline points="10.374304999999998,5.092279999999997 5.174304999999998,5.092279999999997" fill="none" stroke="black" stroke-width="0.5" />
    <polyline points="4.274304999999998,4.592279999999997 9.474304999999998,4.592279999999997" fill="none" stroke="black" stroke-width="0.5" />
    <polyline points="11.174304999999999,5.592279999999997 6.074304999999998,5.592279999999997" fill="none" stroke="black" stroke-width="0.5" />
    <polyline points="6.9743049999999975,6.092279999999997 11.974304999999998,6.092279999999997" fill="none" stroke="black" stroke-width="0.5" />
    <polyline points="12.874304999999998,6.592279999999997 7.874304999999998,6.592279999999997" fill="none" stroke="black" stroke-width="0.5" />
    <polyline points="8.274304999999998,7.092279999999997 13.674304999999999,7.092279999999997" fill="none" stroke="black" stroke-width="0.5" />
    <polyline points="14.474304999999998,7.592279999999997 8.474304999999998,7.592279999999997" fill="none" stroke="black" stroke-width="0.5" />
    <polyline points="8.674304999999997,8.092279999999997 15.274304999999998,8.092279999999997" fill="none" stroke="black" stroke-width="0.5" />
    <polyline points="16.174304999999997,8.592279999999997 8.874304999999998,8.592279999999997" fill="none" stroke="black" stroke-width="0.5" />
    <polyline points="9.074304999999999,9.092279999999997 12.074304999999999,9.092279999999997" fill="none" stroke="black" stroke-width="0.5" />
    <polyline points="12.274304999999998,9.092279999999997 16.974304999999998,9.092279999999997" fill="none" stroke="black" stroke-width="0.5" />
    <polyline points="17.774305,9.592279999999997 13.174304999999999,9.592279999999997" fill="none" stroke="black" stroke-width="0.5" />
    <polyline points="13.974304999999998,10.092279999999997 18.674304999999997,10.092279999999997" fill="none" stroke="black" stroke-width="0.5" />
    <polyline points="19.474304999999998,10.592279999999997 14.874304999999998,10.592279999999997" fill="none" stroke="black" stroke-width="0.5" />
    <polyline points="15.774304999999998,11.092279999999997 20.274305,11.092279999999997" fill="none" stroke="black" stroke-width="0.5" />
    <polyline points="21.174305,11.592279999999997 16.674304999999997,11.592279999999997" fill="none" stroke="black" stroke-width="0.5" />
    <polyline points="17.574305,12.092279999999997 21.974304999999998,12.092279999999997" fill="none" stroke="black" stroke-width="0.5" />
    <polyline points="22.774305,12.592279999999997 18.374305,12.592279999999997" fill="none" stroke="black" stroke-width="0.5" />
    <polyline points="19.274305,13.092279999999997 23.674305,13.092279999999997" fill="none" stroke="black" stroke-width="0.5" />
    <polyline points="24.474304999999998,13.592279999999997 20.174304999999997,13.592279999999997" fill="none" stroke="black" stroke-width="0.5" />
    <polyline points="21.074305,14.092279999999997 25.274305,14.092279999999997" fill="none" stroke="black" stroke-width="0.5" />
    <polyline points="25.374305,14.592279999999997 21.974304999999998,14.592279999999997" fill="none" stroke="black" stroke-width="0.5" />
    <polyline points="22.874305,15.092279999999997 25.174305,15.092279999999997" fill="none" stroke="black" stroke-width="0.5" />
    <polyline points="24.974304999999998,15.592279999999997 23.674305,15.592279999999997" fill="none" stroke="black" stroke-width="0.5" />
    <polyline points="14.374304999999998,17.592279999999995 12.374304999999998,17.592279999999995" fill="none" stroke="black" stroke-width="0.5" />
    <polyline points="12.174304999999999,17.092279999999995 14.274304999999998,17.092279999999995" fill="none" stroke="black" stroke-width="0.5" />
    <polyline points="14.074304999999999,16.592279999999995 11.974304999999998,16.592279999999995" fill="none" stroke="black" stroke-width="0.5" />
    <polyline points="11.774304999999998,16.092279999999995 13.974304999999998,16.092279999999995" fill="none" stroke="black" stroke-width="0.5" />
    <polyline points="13.874304999999998,15.592279999999997 11.574304999999999,15.592279999999997" fill="none" stroke="black" stroke-width="0.5" />
    <polyline points="11.374304999999998,15.092279999999997 13.674304999999999,15.092279999999997" fill="none" stroke="black" stroke-width="0.5" />
    <polyline points="13.574304999999999,14.592279999999997 11.174304999999999,14.592279999999997" fill="none" stroke="black" stroke-width="0.5" />
    <polyline points="10.974304999999998,14.092279999999997 13.474304999999998,14.092279999999997" fill="none" stroke="black" stroke-width="0.5" />
    <polyline points="13.274304999999998,13.592279999999997 10.774304999999998,13.592279999999997" fill="none" stroke="black" stroke-width="0.5" />
    <polyline points="10.574304999999997,13.092279999999997 13.174304999999999,13.092279999999997" fill="none" stroke="black" stroke-width="0.5" />
    <polyline points="12.974304999999998,12.592279999999997 10.374304999999998,12.592279999999997" fill="none" stroke="black" stroke-width="0.5" />
    <polyline points="10.174304999999999,12.092279999999997 12.874304999999998,12.092279999999997" fill="none" stroke="black" stroke-width="0.5" />
    <polyline points="12.774304999999998,11.592279999999997 10.074304999999997,11.592279999999997" fill="none" stroke="black" stroke-width="0.5" />
    <polyline points="9.874304999999998,11.092279999999997 12.574304999999999,11.092279999999997" fill="none" stroke="black" stroke-width="0.5" />
    <polyline points="12.474304999999998,10.592279999999997 9.674304999999999,10.592279999999997" fill="none" stroke="black" stroke-width="0.5" />
    <polyline points="9.474304999999998,10.092279999999997 12.374304999999998,10.092279999999997" fill="none" stroke="black" stroke-width="0.5" />
    <polyline points="12.174304999999999,9.592279999999997 9.274304999999998,9.592279999999997" fill="none" stroke="black" stroke-width="0.5" />
    <polyline points="12.574304999999999,18.092279999999995 14.474304999999998,18.092279999999995" fill="none" stroke="black" stroke-width="0.5" />
    <polyline points="14.574304999999999,18.59228 12.774304999999998,18.59228" fill="none" stroke="black" stroke-width="0.5" />
    <polyline points="1.4743049999999975,3.0922799999999966 -7.925695000000003,3.0922799999999966" fill="none" stroke="black" stroke-width="0.5" />
    <polyline points="-15.625695000000004,3.0922799999999966 -23.425695000000005,3.0922799999999966" fill="none" stroke="black" stroke-width="0.5" />
    <polyline points="1.3743049999999974,-15.407720000000005 5.074304999999997,-15.407720000000005" fill="none" stroke="black" stroke-width="0.5" />
    <polyline points="5.4743049999999975,-15.907720000000005 1.8743049999999974,-15.907720000000005" fill="none" stroke="black" stroke-width="0.5" />
    <polyline points="2.3743049999999974,-16.407720000000005 5.874304999999998,-16.407720000000005" fill="none" stroke="black" stroke-width="0.5" />
    <polyline points="6.274304999999998,-16.907720000000005 2.874304999999998,-16.907720000000005" fill="none" stroke="black" stroke-width="0.5" />
    <polyline points="3.2743049999999974,-17.407720000000005 6.574304999999998,-17.407720000000005" fill="none" stroke="black" stroke-width="0.5" />
    <polyline points="6.9743049999999975,-17.907720000000005 3.774304999999998,-17.907720000000005" fill="none" stroke="black" stroke-width="0.5" />
    <polyline points="4.274304999999998,-18.407720000000005 7.374304999999998,-18.407720000000005" fill="none" stroke="black" stroke-width="0.5" />
    <polyline points="7.774304999999998,-18.907720000000005 4.774304999999998,-18.907720000000005" fill="none" stroke="black" stroke-width="0.5" />
    <polyline points="5.274304999999998,-19.407720000000005 8.174304999999997,-19.407720000000005" fill="none" stroke="black" stroke-width="0.5" />
    <polyline points="8.574304999999999,-19.907720000000005 5.774304999999997,-19.907720000000005" fill="none" stroke="black" stroke-width="0.5" />
    <polyline points="6.274304999999998,-20.407720000000005 8.974304999999998,-20.407720000000005" fill="none" stroke="black" stroke-width="0.5" />
    <polyline points="9.274304999999998,-20.907720000000005 6.774304999999998,-20.907720000000005" fill="none" stroke="black" stroke-width="0.5" />
    <polyline points="7.274304999999998,-21.407720000000005 9.074304999999999,-21.407720000000005" fill="none" stroke="black" stroke-width="0.5" />
    <polyline points="8.574304999999999,-21.907720000000005 7.774304999999998,-21.907720000000005" fill="none" stroke="black" stroke-width="0.5" />
  </g>
</svg>